<?xml version="1.0" encoding="UTF-8" standalone="no"?>
<svg id="svg2" xmlns:rdf="http://www.w3.org/1999/02/22-rdf-syntax-ns#" xmlns="http://www.w3.org/2000/svg" viewBox="0 0 44.907701 30.289532" width="12.674mm" version="1.1" xmlns:cc="http://creativecommons.org/ns#" height="8.5484mm" xmlns:dc="http://purl.org/dc/elements/1.1/">
 <metadata id="metadata7">
  <rdf:RDF>
   <cc:Work rdf:about="">
    <dc:format>image/svg+xml</dc:format>
    <dc:type rdf:resource="http://purl.org/dc/dcmitype/StillImage"/>
    <dc:title/>
   </cc:Work>
  </rdf:RDF>
 </metadata>
 <g id="layer1" transform="translate(-232.64 -245.95)">
  <g id="text3354" transform="translate(-13.429 1.5348)">
   <path id="path4197" d="m288.37 244.46h2.6074l-7.5004 16.802-2.313 0.0139s4.9075-10.569 7.2059-16.816z"/>
  </g>
  <g id="text3342">
   <path id="path4144" d="m249.05 267.47-2.666-6.8115h-8.584l-2.6367 6.8115h-2.5195l8.4668-21.504h2.0947l8.4228 21.504h-2.5781zm-3.4424-9.0527-2.4902-6.6357q-0.4834-1.2598-0.9961-3.0908-0.32226 1.4062-0.92285 3.0908l-2.5195 6.6357h6.9287z"/>
  </g>
  <g id="text3346" fill="#808080" transform="translate(1.6998)">
   <path id="path4205" fill="#000" d="m261.31 251.06 2.8953-2.8056-4.0952-0.0625-1.5695-2.2412 9.885 0.0625v1.9482l-6.3388 5.2107z"/>
  </g>
  <g id="text3358" transform="translate(.9005)">
   <path id="path4200" d="m252.32 267.47 6.4367-14.683-0.78928-2.2045c-0.27217-0.77114-0.52165-1.3155-0.74846-1.633-0.2268-0.31753-0.49443-0.55794-0.80289-0.72124-0.29938-0.1633-11.234-0.11995-11.678-0.11995l-0.70806-2.0572c0.82557 0 12.124-0.12569 13.199-0.0864 0.55341 0.27217 1.3734 1.2656 1.7726 1.8553 0.39918 0.58969 0.84372 1.574 1.3336 2.953l4.9398 13.772c0.17237 0.44453 0.54433 1.0206 0.54433 1.0206l0.60628-1.2102 2.3865 0.0556c-0.43546 0.21773-0.7973 3.0456-1.9694 3.0224-0.67122-0.0132-2.1256 0.13698-2.5066-0.20776-0.37197-0.34474-0.6895-0.89361-0.95259-1.6466l-2.1229-5.9332c-0.76207-2.1773-1.4867-4.263-1.4867-4.263s-1.4106 3.5439-1.6568 4.1134l-3.4565 7.9745z"/>
  </g>
  <g id="g4213" transform="translate(-13.429 1.5348)">
   <path id="path4215" d="m278.72 267.4 2.3864 0.0442-1.1752 2.2805c-0.68359 1.8066-1.4844 3.0859-2.4023 3.8379-0.90821 0.76172-2.0264 1.1426-3.3545 1.1426-0.74219 0-1.4746-0.083-2.1973-0.24903v-1.9482c0.53711 0.11719 1.1377 0.17578 1.8018 0.17578 1.6699 0 2.8613-0.9375 3.5742-2.8125z"/>
  </g>
 </g>
</svg>
